<?xml version="1.0" encoding="utf-8"?>
<!-- Generator: Adobe Illustrator 16.0.0, SVG Export Plug-In . SVG Version: 6.00 Build 0)  -->
<!DOCTYPE svg PUBLIC "-//W3C//DTD SVG 1.1//EN" "http://www.w3.org/Graphics/SVG/1.1/DTD/svg11.dtd">
<svg version="1.1" id="Layer_1" xmlns="http://www.w3.org/2000/svg" xmlns:xlink="http://www.w3.org/1999/xlink" x="0px" y="0px"
	 width="640px" height="460.225px" viewBox="0 0 640 460.225" enable-background="new 0 0 640 460.225" xml:space="preserve">
<g fill="#FFFFFF">
	<path d="M640,120.555c-4.513,10.013-9.635,19.411-14.384,29.187c-9.199,1.958-21.099,3.404-32.147,2.114
		c-6.057,9.172-10.295,20.161-15.649,30.033c10.439,2.318,22.55-0.406,32.146-1.692c-4.604,10.483-10.198,19.976-14.804,30.457
		c-9.53,1.879-21.27,3.373-32.572,2.116c-6.062,10.151-10.904,21.526-16.496,32.146c11.429,1.562,22.727-0.676,32.57-2.113
		c-5.401,10.528-10.436,21.429-16.074,31.725c-9.796,1.373-21.006,3.011-32.147,1.691c5.076-10.151,10.152-20.305,15.228-30.457
		c-12.932-2.434-24.902-5.83-33.839-12.267c-5.169,9.638-10.106,19.504-14.805,29.61c-9.892-7.029-16.938-16.902-22.844-27.917
		c4.325-9.919,9.638-18.846,13.96-28.765c6.754,9.887,13.468,19.809,23.264,26.649c6.435-10.204,11.426-21.853,16.92-32.993
		c9.531,5.84,19.535,11.205,33.418,12.69c5.754-9.476,10.479-19.979,15.65-30.035c-12.976-2.394-24.745-5.994-33.417-12.688
		c-5.639,9.305-10.058,19.833-15.229,29.608c-9.921-6.857-16.665-16.889-22.841-27.494c-5.761,11.02-11.671,21.885-16.919,33.417
		c-2.51-5.055-8.332-11.729-8.883-19.881c-0.268-3.973,1.762-9.227,2.113-14.383c0.365-5.304-1.06-11.086-0.422-15.651
		c1.007-7.156,7.825-13.621,9.728-18.611c5.496,10.723,8.458,23.976,14.383,34.262c5.029-9.352,9.823-18.941,14.382-28.764
		c6.706,10.077,13.278,20.283,23.267,27.073c5.714-9.658,10.389-20.351,15.649-30.456c8.857,6.371,19.293,11.163,32.993,12.689
		c5.932-9.156,10.444-19.729,15.652-29.609C618.762,123.329,630.757,122.483,640,120.555"/>
	<path d="M574.435,108.71c-4.886,10.06-10.153,19.743-14.806,30.034c-10.304-6.477-17.3-16.255-22.842-27.495
		c-5.803,9.568-10.715,20.024-15.65,30.456c-6.892-9.466-9.286-23.429-14.805-34.263c-6.204,8.6-9.446,20.165-15.652,28.765
		c-4.555-9.966-10.494-18.549-18.188-25.38c-2.962,5.922-5.924,11.844-8.884,17.766c-9.146-4.953-22.922-7.533-36.801-6.345
		c2.259-8.456,8.177-16.924,11.845-25.379c-11.219-1.628-20.654,2.183-29.188,4.652c5.263-10.249,10.157-20.867,15.65-30.878
		c7.624-2.547,16.832-4.933,24.958-5.076c1.017-0.017,4.23,0.714,4.654,0c5.427-9.145,9.351-20.871,14.804-30.033
		c-11.904-0.342-21.235,1.887-29.188,5.5c3.479-9.213,9.774-19.268,13.96-29.188c8.701-3.142,17.812-5.875,29.609-5.921
		c-3.046,9.649-9.949,19.09-13.959,29.187c14.275,1.658,24.995,6.869,32.994,14.804c-4.69,10.538-10.157,20.301-15.228,30.457
		c6.918,7.885,13.087,16.522,18.188,26.226c5.559-9.813,10.485-20.253,15.652-30.456c6.039,10.457,8.794,24.2,14.805,34.686
		c5.312-9.915,10.388-20.067,15.228-30.456C557.962,91.059,564.692,101.393,574.435,108.71 M472.916,110.403
		c4.46-10.198,9.919-19.412,14.381-29.61c-8.028-7.762-17.627-13.959-32.57-14.805c-5.783,9.59-10.345,20.397-15.652,30.456
		C454.684,96.766,463.935,103.449,472.916,110.403"/>
	<path d="M537.21,44.838c-5.03,10.339-10.435,20.304-15.228,30.879c-5.663-9.141-11.067-18.544-18.611-25.803
		c4.651-10.292,9.919-19.975,14.805-30.033C526.641,26.078,531.77,35.612,537.21,44.838"/>
	<path d="M435.268,127.747c25.351,1.573,40.972,14.5,39.337,43.992c-1.19,21.568-10.023,40.803-17.342,57.106
		c-3.718,8.281-7.978,16.691-12.265,24.956c-6.432,12.395-10.932,22.767-9.309,41.876H203.463
		c2.01-19.548-3.392-31.289-10.151-43.991c-4.574-8.595-9.027-17.317-12.69-25.379c-7.535-16.577-16.499-37.08-16.499-59.643
		c0-25.516,16.028-37.297,39.762-38.916c33.181-2.263,66.58,10.147,91.368,17.343c2.931-0.593,3.791-3.262,6.769-3.807
		c-15.461-12.035-7.931-44.918,12.69-46.53V83.332h-9.729V72.757h9.306c1.262-2.403-0.414-7.75,0.847-10.152h10.575v9.729
		c2.263,0.981,6.341,0.144,9.306,0.423c0.94,2.727,0.178,7.157,0.423,10.575h-9.306c-0.982,2.826-0.145,7.469-0.423,10.998
		c9.766,3.015,19.649,10.544,21.149,22.418c1.367,10.799-2.812,18.303-8.458,24.112c1.933,1.45,3.792,2.973,5.92,4.229
		C372.066,137.907,398.97,125.492,435.268,127.747 M458.531,175.123c1.73-25.812-14.714-33.062-38.915-31.303
		c-28.055,2.043-48.624,9.928-71.91,18.19c5.148,28.069-11.307,42.249-12.69,67.255c-0.735,13.305-1.126,27.983,6.344,34.686
		c4.507,4.044,14.633,5.5,19.882,1.27c7.683-6.188,7.326-19.917,11-30.878h-13.96c1.942-4.686,2.21-11.044,4.654-15.228h13.537
		c1.746-5.164,2.647-11.171,4.652-16.074h15.229c-1.021,5.348-3.566,11.35-3.808,16.074h14.805
		c-1.527,4.962-2.411,10.563-4.229,15.228h-15.227c-2.84,13.707-12.834,33.522,6.767,35.532
		c22.949,2.351,31.065-17.079,38.916-30.878C443.346,221.821,457.084,196.716,458.531,175.123 M305.407,247.031
		c0.914-12.782,0.109-27.31-4.23-38.068c-6.07-15.055-12.268-28.667-8.884-47.376c-13.354-4.527-25.286-8.338-38.493-11.845
		c-12.66-3.362-27.047-7.623-44.416-6.345c-19.479,1.434-30.315,10.791-28.762,32.147c1.662,22.846,17.173,48.886,27.495,66.413
		c7.435,12.625,13.409,26.331,30.456,27.917c9.725,0.905,17.178-2.736,18.611-7.614c2.953-10.046-5.207-18.387-5.498-27.918h-15.229
		c-1.299-4.767-3.435-10.942-3.807-15.228h14.804c-0.875-5.468-3.349-11.594-3.806-16.074H259.3
		c1.069,5.698,2.483,11.054,4.229,16.074h13.959c1.363,4.705,3.392,10.987,3.807,15.228h-13.958
		c4.601,11.12,3.582,28.143,13.958,32.572C296.15,273.252,304.599,258.306,305.407,247.031"/>
	<path d="M429.769,0c6.853,3.438,13.608,6.979,20.728,10.152c-19.695,38.823-39.132,77.899-58.799,116.748
		c-10.612,1.655-19.72,4.814-29.609,7.191c22.33-44.783,45-89.232,67.258-134.091H429.769z"/>
	<path d="M436.113,302.869v23.689H203.886v-22.42c-0.038-0.602-0.071-1.199,0.424-1.269H436.113z"/>
	<path d="M436.96,450.496c-6.95,2.92-13.571,6.171-19.882,9.729h-1.27c-21.026-43.269-43.073-85.516-64.295-128.594h25.804
		C397.371,371.084,417.463,410.493,436.96,450.496"/>
	<path d="M262.683,331.631h25.804c-21.07,43.229-43.185,85.409-64.295,128.594h-0.848c-6.615-3.537-13.637-6.665-20.303-10.153
		C222.922,410.594,242.734,371.047,262.683,331.631"/>
	<path d="M277.911,134.091c-9.42-2.703-18.662-5.588-29.187-7.191c-19.961-38.557-39.458-77.573-58.797-116.748
		C196.501,6.573,203.887,3.807,210.232,0h0.422C233.043,44.728,255.856,89.033,277.911,134.091"/>
	<path d="M215.308,70.641c5.261,10.245,10.151,20.866,15.65,30.879c-7.761-2.106-17.49-5.914-29.61-5.076
		c3.867,8.963,8.626,17.038,12.69,25.803c-14.289-1.311-28.036,1.569-37.646,6.345c-2.492-6.252-5.97-11.515-8.46-17.766
		c-8.202,6.46-13.688,15.638-18.612,25.379c-5.5-9.021-9.775-19.267-14.805-28.763c-6.222,10.274-9.053,23.941-14.806,34.686
		c-5.299-10.211-10.743-20.278-15.65-30.879c-6.332,10.589-13.35,20.49-22.841,27.918c4.607,10.482,10.198,19.974,14.805,30.456
		c10.393-6.388,17.254-16.303,23.265-27.073c5.499,9.022,9.775,19.268,14.805,28.764c6.32-10.177,9.044-23.949,14.805-34.686
		c2.541,6.312,9.868,14.555,9.306,23.265c-0.203,3.155-0.225,6.963,0,10.575c0.317,5.132,2.338,10.461,2.115,14.382
		c-0.482,8.461-7.048,14.933-8.46,21.151c-5.973-11.092-11.67-22.454-17.343-33.841c-6.362,10.559-13.502,20.337-22.842,27.918
		c5.5,10.999,10.998,21.997,16.496,32.994c10.021-6.615,17.251-16.027,23.266-26.649c3.917,6.363,7.158,13.384,10.998,21.151
		c1.052,2.131,3.384,5.457,3.384,7.189c0,3.846-7.415,13.155-9.729,16.076c-4.01,5.058-8.837,9.415-13.114,11.844
		c-4.318-10.203-10.062-18.986-14.381-29.188c-9.517,5.853-20.257,10.476-34.264,11.843c-5.312-10.905-10.997-21.434-16.074-32.57
		c13.638-1.73,24.683-6.058,32.995-13.113c-4.602-10.204-9.78-19.832-14.805-29.611c-9.082,6.289-19.897,10.841-33.84,12.267
		c-5.123-9.966-9.869-20.304-15.229-30.033c13.359-2.149,24.695-6.329,33.417-13.113c-4.652-10.292-9.915-19.974-14.805-30.034
		c8.681-8.239,16.781-17.06,21.996-28.764c5.782,9.589,10.342,20.396,15.652,30.456c6.298-10.199,8.958-24.035,14.804-34.686
		c5.457,10.05,10.443,20.574,15.651,30.879c5.105-9.699,10.923-18.688,18.189-26.227c-4.607-10.482-10.2-19.974-14.805-30.456
		c-8.329,6.333-13.779,15.55-18.613,25.38c-5.782-9.59-10.343-20.397-15.651-30.456c4.64-9.886,11.116-20.178,19.035-25.38
		c4.463,10.198,9.919,19.411,14.381,29.61c8.376-5.871,18.443-13.701,33.84-13.959c5.234,9.996,10.444,20.012,15.228,30.456
		c-15.222,0.711-24.711,7.154-32.993,14.805c4.843,9.962,9.937,19.674,14.805,29.611c8.765-7.026,18.025-13.558,33.417-13.959
		c-4.607-10.482-10.197-19.974-14.804-30.456C196.941,64.782,206.717,68.214,215.308,70.641"/>
	<path d="M185.697,11.844c4.839,9.399,9.306,19.176,14.381,28.342c-8.134-1.735-18.252-5.153-29.608-5.076
		c-4.985-9.539-10.107-18.942-14.384-29.187C167.926,5.927,177.013,8.684,185.697,11.844"/>
	<path d="M109.558,276.219c-11.108,1.281-22.427-0.244-32.149-1.691c-5.168-10.622-10.714-20.867-15.65-31.725
		c9.69,2.152,21.193,2.494,32.57,2.961C99.643,255.678,104.718,265.831,109.558,276.219"/>
	<path d="M62.604,182.736c5.313,9.771,10.164,20.007,15.228,30.034c-11.253,1.251-23.202-0.115-32.571-2.115
		c-5.123-9.966-9.869-20.305-15.228-30.035C39.085,181.353,52.083,183.392,62.604,182.736"/>
	<path d="M46.953,151.857c-11.205-0.076-23.24,0.677-31.725-2.115C9.26,141.045,5.499,130.145,0,120.978v-0.422
		c9.065,1.86,21.015,2.863,31.725,1.691C37.567,131.349,42.063,141.802,46.953,151.857"/>
</g>
</svg>
